<svg width="40" height="40" viewBox="0 0 40 40" fill="none" xmlns="http://www.w3.org/2000/svg">
<g id="healthicons:register-book">
<g id="Group">
<path id="Vector" d="M30.825 24.1691C27.7667 24.1375 26.0608 24.4458 22.815 25.7716L22.185 24.2283C25.6242 22.8241 27.55 22.4683 30.8417 22.5025L30.825 24.1691ZM22.815 22.4383C26.0608 21.1133 27.7675 20.8041 30.825 20.8358L30.8417 19.1691C27.55 19.135 25.625 19.4908 22.185 20.895L22.815 22.4383ZM30.825 17.5025C27.7667 17.4708 26.0608 17.7791 22.815 19.105L22.185 17.5616C25.6242 16.1575 27.55 15.8016 30.8417 15.8358L30.825 17.5025ZM28.75 13.3333V10.8333H30.4167V13.3333H28.75ZM25.8333 11.6666V14.1666H27.5V11.6666H25.8333ZM22.9167 15V12.5H24.5833V15H22.9167ZM9.17499 24.1691C12.2333 24.1375 13.9392 24.4458 17.185 25.7716L17.815 24.2283C14.3758 22.8241 12.45 22.4683 9.15833 22.5025L9.17499 24.1691ZM17.185 22.4383C13.9392 21.1133 12.2333 20.8041 9.17499 20.8358L9.15833 19.1691C12.45 19.135 14.375 19.4908 17.815 20.895L17.185 22.4383ZM9.17499 17.5025C12.2333 17.4708 13.9392 17.7791 17.185 19.105L17.815 17.5616C14.3758 16.1575 12.45 15.8016 9.15833 15.8358L9.17499 17.5025ZM11.25 13.3333V10.8333H9.58333V13.3333H11.25ZM14.1667 11.6666V14.1666H12.5V11.6666H14.1667ZM17.0833 15V12.5H15.4167V15H17.0833Z" fill="#12111F"/>
<path id="Vector_2" fill-rule="evenodd" clip-rule="evenodd" d="M35 9.15332C35.3383 9.22749 35.6833 9.30749 36.0358 9.39249C36.216 9.43627 36.3762 9.53939 36.4906 9.68526C36.605 9.83113 36.667 10.0113 36.6667 10.1967V31.4792C36.6667 32.0067 36.1808 32.4 35.6633 32.3017C30.4858 31.3142 26.9967 31.245 22.2283 31.9683C22.0192 32.3796 21.7003 32.7249 21.307 32.9661C20.9137 33.2073 20.4613 33.335 20 33.335C19.5386 33.335 19.0863 33.2073 18.693 32.9661C18.2997 32.7249 17.9808 32.3796 17.7717 31.9683C13.0042 31.245 9.51332 31.3142 4.33665 32.3017C4.21504 32.3253 4.0897 32.3218 3.96958 32.2915C3.84946 32.2612 3.7375 32.2048 3.64169 32.1262C3.54587 32.0477 3.46856 31.949 3.41526 31.8371C3.36196 31.7253 3.33398 31.6031 3.33332 31.4792V10.1975C3.33261 10.0119 3.39448 9.83152 3.50895 9.68545C3.62341 9.53938 3.78379 9.43617 3.96415 9.39249C4.31665 9.30749 4.66165 9.22749 4.99999 9.15332V8.76999C4.99999 8.03249 5.49082 7.35832 6.23665 7.16999C11.3617 5.88166 15.0933 7.24666 19.3675 9.23416C19.5758 9.27749 19.7867 9.32082 20 9.36749C20.2133 9.32082 20.425 9.27749 20.6333 9.23416C24.9067 7.24666 28.6383 5.88166 33.7633 7.17082C34.1181 7.26159 34.4324 7.4682 34.6565 7.75789C34.8805 8.04759 35.0014 8.40378 35 8.76999V9.15332ZM33.3333 28.3067V8.78082C28.6183 7.60166 25.2642 8.89332 20.8333 10.9808V30.3492L20.8358 30.3508L20.8375 30.3517C20.8398 30.353 20.8423 30.3538 20.845 30.3542H20.8475C20.8492 30.3537 20.8509 30.3532 20.8525 30.3525C24.9433 28.5008 28.5117 27.45 33.2883 28.3217C33.2951 28.323 33.3021 28.3229 33.3089 28.3213C33.3157 28.3198 33.322 28.3167 33.3275 28.3125C33.3297 28.3108 33.3316 28.3089 33.3333 28.3067ZM19.1642 30.3508L19.1667 30.3492V10.9808C14.7358 8.89416 11.3817 7.60166 6.66665 8.78082V28.3067L6.67249 28.3125C6.678 28.317 6.68445 28.3202 6.69137 28.322C6.69828 28.3237 6.70549 28.3239 6.71249 28.3225C11.4875 27.45 15.0567 28.5008 19.1475 30.3517C19.1496 30.3528 19.1518 30.3537 19.1542 30.3542C19.1574 30.3538 19.1614 30.3526 19.1642 30.3508Z" fill="#12111F"/>
</g>
</g>
</svg>
