<svg width="84" height="84" viewBox="0 0 84 84" fill="none" xmlns="http://www.w3.org/2000/svg">
<path d="M29.5001 50.3334H71.1667L56.7917 31.5834L47.2084 44.0834L40.75 35.75L29.5001 50.3334ZM25.3334 67.0001C23.0417 67.0001 21.0792 66.1834 19.4459 64.5501C17.8125 62.9167 16.9973 60.9556 17 58.6667V8.66671C17 6.37505 17.8167 4.41255 19.45 2.77921C21.0834 1.14588 23.0445 0.330603 25.3334 0.333381H75.3334C77.6251 0.333381 79.5876 1.15005 81.2209 2.78338C82.8542 4.41671 83.6695 6.37783 83.6667 8.66671V58.6667C83.6667 60.9584 82.8501 62.9209 81.2167 64.5542C79.5834 66.1876 77.6223 67.0028 75.3334 67.0001H25.3334ZM8.66671 83.6667C6.37505 83.6667 4.41255 82.8501 2.77921 81.2167C1.14588 79.5834 0.330603 77.6223 0.333381 75.3334V17H8.66671V75.3334H67.0001V83.6667H8.66671Z" fill="#F9FAFB"/>
</svg>
