<svg width="43" height="40" viewBox="0 0 43 40" fill="none" xmlns="http://www.w3.org/2000/svg">
<g id="ri:profile-line">
<path id="Vector" d="M37.7017 5C38.6721 5 39.4584 5.74167 39.4584 6.655V33.345C39.4551 33.7827 39.2691 34.2016 38.9404 34.5113C38.6117 34.821 38.1667 34.9965 37.7017 35H5.79835C5.33229 34.9996 4.88548 34.825 4.5561 34.5147C4.22671 34.2043 4.04169 33.7836 4.04169 33.345V6.655C4.04493 6.2173 4.23099 5.79836 4.55968 5.4887C4.88837 5.17903 5.3333 5.00349 5.79835 5H37.7017ZM35.9167 8.33333H7.58335V31.6667H35.9167V8.33333ZM32.375 25V28.3333H11.125V25H32.375ZM21.75 11.6667V21.6667H11.125V11.6667H21.75ZM32.375 18.3333V21.6667H25.2917V18.3333H32.375ZM18.2084 15H14.6667V18.3333H18.2084V15ZM32.375 11.6667V15H25.2917V11.6667H32.375Z" fill="#F6F8FA"/>
</g>
</svg>
