<svg width="40" height="40" viewBox="0 0 40 40" fill="none" xmlns="http://www.w3.org/2000/svg">
<g id="icon-park-outline:court">
<g id="Group">
<path id="Vector" d="M20 30H36.6666V10H3.33331V30H20ZM20 30V23.3333M20 10V16.6667" stroke="#F6F8FA" stroke-width="4" stroke-linecap="round" stroke-linejoin="round"/>
<path id="Vector_2" d="M20 23.3334C21.8409 23.3334 23.3333 21.841 23.3333 20C23.3333 18.1591 21.8409 16.6667 20 16.6667C18.159 16.6667 16.6666 18.1591 16.6666 20C16.6666 21.841 18.159 23.3334 20 23.3334Z" stroke="#F6F8FA" stroke-width="4" stroke-linecap="round" stroke-linejoin="round"/>
<path id="Vector_3" d="M9.16665 20C9.16665 20.8841 8.81546 21.7319 8.19034 22.357C7.56521 22.9822 6.71737 23.3334 5.83331 23.3334H3.33331V16.6667H5.83331C6.71737 16.6667 7.56521 17.0179 8.19034 17.643C8.81546 18.2681 9.16665 19.116 9.16665 20ZM30.8333 20C30.8333 20.8841 31.1845 21.7319 31.8096 22.357C32.4347 22.9822 33.2826 23.3334 34.1666 23.3334H36.6666V16.6667H34.1666C33.2826 16.6667 32.4347 17.0179 31.8096 17.643C31.1845 18.2681 30.8333 19.116 30.8333 20Z" stroke="#F6F8FA" stroke-width="4" stroke-linecap="round" stroke-linejoin="round"/>
</g>
</g>
</svg>
