<svg width="21" height="21" viewBox="0 0 21 21" fill="none" xmlns="http://www.w3.org/2000/svg">
<path d="M19.8838 19.4298L13.8109 13.3197C14.9428 11.9641 15.625 10.22 15.625 8.31567C15.625 4.00099 12.1272 0.503174 7.8125 0.503174C3.49781 0.503174 0 4.00099 0 8.31567C0 12.6304 3.49781 16.1282 7.8125 16.1282C9.77281 16.1282 11.5634 15.4044 12.9353 14.2113L18.9997 20.3138C19.2437 20.5579 19.6397 20.5579 19.8838 20.3138C20.1275 20.0697 20.1275 19.6741 19.8838 19.4298H19.8838ZM7.8125 14.8885C4.1825 14.8885 1.23969 11.9457 1.23969 8.31567C1.23969 4.68567 4.1825 1.74286 7.8125 1.74286C11.4425 1.74286 14.3853 4.68567 14.3853 8.31567C14.3853 11.9457 11.4425 14.8885 7.8125 14.8885Z" fill="#12111F"/>
</svg>
