<svg width="21" height="21" viewBox="0 0 24 24" fill="none" xmlns="http://www.w3.org/2000/svg">
<g id="fluent:ios-arrow-24-filled">
<path id="Vector" d="M12.727 20.313C12.8172 20.4085 12.8877 20.5208 12.9345 20.6435C12.9813 20.7662 13.0035 20.897 12.9998 21.0283C12.9961 21.1596 12.9666 21.2889 12.9129 21.4088C12.8592 21.5286 12.7824 21.6368 12.687 21.727C12.5915 21.8172 12.4792 21.8877 12.3565 21.9346C12.2337 21.9814 12.103 22.0036 11.9717 21.9998C11.8404 21.9961 11.7111 21.9666 11.5912 21.9129C11.4713 21.8592 11.3632 21.7825 11.273 21.687L2.77297 12.687C2.59743 12.5013 2.49962 12.2555 2.49962 12C2.49962 11.7445 2.59743 11.4987 2.77297 11.313L11.273 2.31199C11.3626 2.21443 11.4707 2.13565 11.591 2.08023C11.7114 2.0248 11.8415 1.99384 11.9739 1.98914C12.1063 1.98443 12.2383 2.00608 12.3623 2.05283C12.4862 2.09957 12.5996 2.17048 12.696 2.26144C12.7923 2.35239 12.8696 2.46158 12.9233 2.58265C12.9771 2.70373 13.0063 2.83429 13.0092 2.96673C13.012 3.09918 12.9886 3.23088 12.9401 3.35418C12.8917 3.47748 12.8192 3.58993 12.727 3.68499L4.87497 12L12.727 20.313Z" fill="#F9FAFB"/>
</g>
</svg>
