<svg width="75" height="75" viewBox="0 0 75 75" fill="none" xmlns="http://www.w3.org/2000/svg">
<g id="ic:baseline-sports-soccer">
<path id="Vector" d="M37.5 6.25C20.25 6.25 6.25 20.25 6.25 37.5C6.25 54.75 20.25 68.75 37.5 68.75C54.75 68.75 68.75 54.75 68.75 37.5C68.75 20.25 54.75 6.25 37.5 6.25ZM40.625 16.5625L44.8438 13.5937C50.4967 15.3455 55.3461 19.0434 58.5312 24.0312L57.3125 28.2187L53.0937 29.6562L40.625 20.9375V16.5625ZM30.1562 13.5937L34.375 16.5625V20.9375L21.9062 29.6562L17.6875 28.2187L16.4687 24.0312C19.6725 19.0605 24.5149 15.3679 30.1562 13.5937ZM22.125 53.4688L18.5625 53.7812C14.6451 49.2624 12.4922 43.4804 12.5 37.5C12.5 37.125 12.5312 36.7812 12.5625 36.4062L15.6875 34.125L20 35.625L24.5625 49.1875L22.125 53.4688ZM45.3125 61.2187C42.8437 62.0312 40.2187 62.5 37.5 62.5C34.7812 62.5 32.1562 62.0312 29.6875 61.2187L27.5312 56.5625L29.5312 53.125H45.5L47.5 56.5937L45.3125 61.2187ZM44.5938 46.875H30.4062L26.1875 34.3125L37.5 26.375L48.8437 34.3125L44.5938 46.875ZM56.4375 53.7812L52.875 53.4688L50.4062 49.1875L54.9687 35.625L59.3125 34.1562L62.4375 36.4375C62.4687 36.7812 62.5 37.125 62.5 37.5C62.5 43.7187 60.2187 49.4062 56.4375 53.7812Z" fill="#F9FAFB"/>
</g>
</svg>
