<svg width="25" height="24" viewBox="0 0 25 24" fill="none" xmlns="http://www.w3.org/2000/svg">
<path d="M9.5 14H19.5L16.05 9.5L13.75 12.5L12.2 10.5L9.5 14ZM8.5 18C7.95 18 7.479 17.804 7.087 17.412C6.695 17.02 6.49934 16.5493 6.5 16V4C6.5 3.45 6.696 2.979 7.088 2.587C7.48 2.195 7.95067 1.99934 8.5 2H20.5C21.05 2 21.521 2.196 21.913 2.588C22.305 2.98 22.5007 3.45067 22.5 4V16C22.5 16.55 22.304 17.021 21.912 17.413C21.52 17.805 21.0493 18.0007 20.5 18H8.5ZM4.5 22C3.95 22 3.479 21.804 3.087 21.412C2.695 21.02 2.49934 20.5493 2.5 20V6H4.5V20H18.5V22H4.5Z" fill="#F9FAFB"/>
</svg>
