<svg width="48" height="48" viewBox="0 0 48 48" fill="none" xmlns="http://www.w3.org/2000/svg">
<g id="healthicons:register-book">
<g id="Group">
<path id="Vector" d="M36.99 29.003C33.32 28.965 31.273 29.335 27.378 30.926L26.622 29.074C30.749 27.389 33.06 26.962 37.01 27.003L36.99 29.003ZM27.378 26.926C31.273 25.336 33.321 24.965 36.99 25.003L37.01 23.003C33.06 22.962 30.75 23.389 26.622 25.074L27.378 26.926ZM36.99 21.003C33.32 20.965 31.273 21.335 27.378 22.926L26.622 21.074C30.749 19.389 33.06 18.962 37.01 19.003L36.99 21.003ZM34.5 16V13H36.5V16H34.5ZM31 14V17H33V14H31ZM27.5 18V15H29.5V18H27.5ZM11.01 29.003C14.68 28.965 16.727 29.335 20.622 30.926L21.378 29.074C17.251 27.389 14.94 26.962 10.99 27.003L11.01 29.003ZM20.622 26.926C16.727 25.336 14.68 24.965 11.01 25.003L10.99 23.003C14.94 22.962 17.25 23.389 21.378 25.074L20.622 26.926ZM11.01 21.003C14.68 20.965 16.727 21.335 20.622 22.926L21.378 21.074C17.251 19.389 14.94 18.962 10.99 19.003L11.01 21.003ZM13.5 16V13H11.5V16H13.5ZM17 14V17H15V14H17ZM20.5 18V15H18.5V18H20.5Z" fill="white"/>
<path id="Vector_2" fill-rule="evenodd" clip-rule="evenodd" d="M42 10.984C42.406 11.073 42.82 11.169 43.243 11.271C43.4592 11.3235 43.6514 11.4473 43.7887 11.6223C43.926 11.7974 44.0005 12.0135 44 12.236V37.775C44 38.408 43.417 38.88 42.796 38.762C36.583 37.577 32.396 37.494 26.674 38.362C26.423 38.8555 26.0404 39.2699 25.5684 39.5593C25.0965 39.8488 24.5536 40.002 24 40.002C23.4464 40.002 22.9035 39.8488 22.4316 39.5593C21.9596 39.2699 21.577 38.8555 21.326 38.362C15.605 37.494 11.416 37.577 5.20401 38.762C5.05807 38.7904 4.90767 38.7862 4.76352 38.7499C4.61937 38.7135 4.48502 38.6457 4.37005 38.5515C4.25507 38.4572 4.1623 38.3388 4.09834 38.2046C4.03438 38.0703 4.0008 37.9237 4.00001 37.775V12.237C3.99915 12.0143 4.0734 11.7978 4.21076 11.6226C4.34812 11.4473 4.54057 11.3234 4.75701 11.271C5.18001 11.169 5.59401 11.073 6.00001 10.984V10.524C6.00001 9.63901 6.58901 8.83001 7.48401 8.60401C13.634 7.05801 18.112 8.69601 23.241 11.081C23.491 11.133 23.744 11.185 24 11.241C24.256 11.185 24.51 11.133 24.76 11.081C29.888 8.69601 34.366 7.05801 40.516 8.60501C40.9417 8.71393 41.3189 8.96186 41.5878 9.30949C41.8566 9.65713 42.0017 10.0846 42 10.524V10.984ZM40 33.968V10.537C34.342 9.12201 30.317 10.672 25 13.177V36.419L25.003 36.421L25.005 36.422C25.0078 36.4236 25.0108 36.4246 25.014 36.425H25.017C25.0191 36.4245 25.0211 36.4238 25.023 36.423C29.932 34.201 34.214 32.94 39.946 33.986C39.9542 33.9877 39.9626 33.9875 39.9707 33.9856C39.9788 33.9837 39.9864 33.9801 39.993 33.975C39.9956 33.973 39.998 33.9706 40 33.968ZM22.997 36.421L23 36.419V13.177C17.683 10.673 13.658 9.12201 8.00001 10.537V33.968L8.00701 33.975C8.01363 33.9804 8.02137 33.9843 8.02966 33.9864C8.03796 33.9885 8.04662 33.9887 8.05501 33.987C13.785 32.94 18.068 34.201 22.977 36.422C22.9795 36.4234 22.9822 36.4244 22.985 36.425C22.9889 36.4245 22.9937 36.4232 22.997 36.421Z" fill="white"/>
</g>
</g>
</svg>
