<svg width="50" height="50" viewBox="0 0 50 50" fill="none" xmlns="http://www.w3.org/2000/svg">
<g id="ic:round-place">
<path id="Vector" d="M25 4.16669C16.25 4.16669 8.33337 10.875 8.33337 21.25C8.33337 27.875 13.4375 35.6667 23.625 44.6459C24.4167 45.3334 25.6042 45.3334 26.3959 44.6459C36.5625 35.6667 41.6667 27.875 41.6667 21.25C41.6667 10.875 33.75 4.16669 25 4.16669ZM25 25C22.7084 25 20.8334 23.125 20.8334 20.8334C20.8334 18.5417 22.7084 16.6667 25 16.6667C27.2917 16.6667 29.1667 18.5417 29.1667 20.8334C29.1667 23.125 27.2917 25 25 25Z" fill="#F9FAFB"/>
</g>
</svg>
