<svg width="75" height="75" viewBox="0 0 75 75" fill="none" xmlns="http://www.w3.org/2000/svg">
<g id="mdi:youtube-sports">
<path id="Vector" d="M7.3125 45.7187C9.1875 45.0312 11.125 44.6875 13.1875 44.6875C17.375 44.6875 21.0312 46 24.1562 48.625L14.3438 58.4375C11.0883 54.7701 8.68684 50.4261 7.3125 45.7187ZM48.625 30.625C54.7812 35.2187 61.4375 36.3437 68.5625 34C68.6562 34.6562 68.75 35.8437 68.75 37.5C68.75 40.7187 67.9688 44.3125 66.5 48.2812C65.0313 52.2187 63.2187 55.4062 61.0937 57.8125L41.3125 38.0937L48.625 30.625ZM27.4063 52C30.7188 56.7812 31.4062 62 29.4375 67.6875C25 66.4062 21.0312 64.4062 17.7188 61.6562L27.4063 52ZM38.0937 41.3125L57.8125 61.0937C51.0312 67.0312 43.0625 69.5312 34 68.5625C34.6562 66.5 35 64.25 35 61.8125C35 59.875 34.5625 57.5938 33.6875 55C32.8125 52.4062 31.7812 50.2812 30.625 48.625L38.0937 41.3125ZM27.5313 45.3125C24.6834 42.7657 21.1926 41.0473 17.4375 40.3437C13.625 39.625 9.96875 39.8437 6.4375 41.0312C6.34375 40.3437 6.25 39.1562 6.25 37.5C6.25 34.2812 7.03125 30.6875 8.5 26.7187C9.96875 22.7812 11.7812 19.5937 13.9062 17.1875L34.7187 38.0937L27.5313 45.3125ZM48.625 24.1562C44.4375 19 43.4688 13.375 45.7188 7.3125C47.6562 7.8125 49.875 8.75 52.375 10.1875C54.8438 11.5937 56.875 13 58.4375 14.3437L48.625 24.1562ZM67.6875 29.3125C65.8125 29.9687 63.875 30.3125 61.8125 30.3125C58.4063 30.3125 55.125 29.3125 52 27.25L61.6562 17.7187C64.4062 21.1562 66.4062 25 67.6875 29.3125ZM38.0937 34.7187L17.1875 13.9062C23.9688 7.96875 31.9375 5.46875 41.0312 6.4375C40.3438 8.5 40 10.75 40 13.1875C40 15.4375 40.5 17.9687 41.5312 20.8125C42.5625 23.625 43.75 25.875 45.3125 27.5312L38.0937 34.7187Z" fill="#F9FAFB"/>
</g>
</svg>
