<svg width="50" height="50" viewBox="0 0 50 50" fill="none" xmlns="http://www.w3.org/2000/svg">
<path d="M6.25002 14.5833V6.25001L14.5834 10.4167L6.25002 14.5833ZM37.5 14.5833V6.25001L45.8334 10.4167L37.5 14.5833ZM22.9167 12.5V4.16667L31.25 8.33334L22.9167 12.5ZM18.75 45.5729C16.9445 45.3993 15.1736 45.1389 13.4375 44.7917C11.7014 44.4444 10.1472 44.0188 8.77502 43.5146C7.40419 43.0118 6.29308 42.4306 5.44169 41.7708C4.5903 41.1111 4.1653 40.3819 4.16669 39.5833V20.8333C4.16669 19.9653 4.71391 19.1576 5.80836 18.4104C6.9028 17.6632 8.38683 17.0035 10.2604 16.4313C12.1354 15.859 14.3403 15.4076 16.875 15.0771C19.4097 14.7465 22.1181 14.5819 25 14.5833C27.882 14.5833 30.5903 14.7486 33.125 15.0792C35.6597 15.4097 37.8646 15.8611 39.7396 16.4333C41.6146 17.0056 43.0993 17.6653 44.1938 18.4125C45.2882 19.1597 45.8347 19.9667 45.8334 20.8333V39.5833C45.8334 40.3819 45.4077 41.1111 44.5563 41.7708C43.7049 42.4306 42.5938 43.0125 41.2229 43.5167C39.8521 44.0194 38.2986 44.4444 36.5625 44.7917C34.8264 45.1389 33.0556 45.3993 31.25 45.5729V35.4167H18.75V45.5729ZM25 22.9167C28.3681 22.9167 31.2764 22.7167 33.725 22.3167C36.1736 21.9167 38.1264 21.4569 39.5834 20.9375C39.5834 20.7639 38.2639 20.3556 35.625 19.7125C32.9861 19.0694 29.4445 18.7486 25 18.75C20.5556 18.75 17.0139 19.0715 14.375 19.7146C11.7361 20.3576 10.4167 20.7653 10.4167 20.9375C11.875 21.4583 13.8285 21.9188 16.2771 22.3188C18.7257 22.7188 21.6334 22.9181 25 22.9167Z" fill="#F9FAFB"/>
</svg>
