<svg width="75" height="75" viewBox="0 0 75 75" fill="none" xmlns="http://www.w3.org/2000/svg">
<g id="material-symbols:sports-baseball">
<path id="Vector" d="M13.0469 56.9531C10.8594 54.1406 9.17917 51.0802 8.00626 47.7719C6.83334 44.4635 6.24792 41.0396 6.25001 37.5C6.25001 33.9583 6.83646 30.5333 8.00938 27.225C9.1823 23.9167 10.8615 20.8573 13.0469 18.0469C16.0677 20.3906 18.4375 23.2688 20.1563 26.6812C21.875 30.0938 22.7344 33.7 22.7344 37.5C22.7344 41.3021 21.875 44.9094 20.1563 48.3219C18.4375 51.7344 16.0677 54.6115 13.0469 56.9531ZM37.5 68.75C33.75 68.75 30.1688 68.125 26.7563 66.875C23.3438 65.625 20.2323 63.8021 17.4219 61.4062C21.0156 58.4375 23.8281 54.8833 25.8594 50.7438C27.8906 46.6042 28.9063 42.1896 28.9063 37.5C28.9063 32.8125 27.8906 28.399 25.8594 24.2594C23.8281 20.1198 21.0156 16.5646 17.4219 13.5937C20.2344 11.1979 23.3469 9.375 26.7594 8.125C30.1719 6.875 33.7521 6.25 37.5 6.25C41.25 6.25 44.8313 6.875 48.2438 8.125C51.6563 9.375 54.7677 11.1979 57.5781 13.5937C53.9844 16.5625 51.1719 20.1177 49.1406 24.2594C47.1094 28.401 46.0938 32.8146 46.0938 37.5C46.0938 42.1875 47.1094 46.601 49.1406 50.7406C51.1719 54.8802 53.9844 58.4354 57.5781 61.4062C54.7656 63.8021 51.6531 65.625 48.2406 66.875C44.8281 68.125 41.2479 68.75 37.5 68.75ZM61.9531 56.9531C58.9323 54.6094 56.5625 51.7313 54.8438 48.3187C53.125 44.9062 52.2656 41.3 52.2656 37.5C52.2656 33.6979 53.125 30.0906 54.8438 26.6781C56.5625 23.2656 58.9323 20.3885 61.9531 18.0469C64.1406 20.8594 65.8208 23.9198 66.9938 27.2281C68.1667 30.5365 68.7521 33.9604 68.75 37.5C68.75 41.0417 68.1635 44.4667 66.9906 47.775C65.8177 51.0833 64.1385 54.1427 61.9531 56.9531Z" fill="#F9FAFB"/>
</g>
</svg>
