<svg width="75" height="75" viewBox="0 0 75 75" fill="none" xmlns="http://www.w3.org/2000/svg">
<g id="ic:sharp-sports-volleyball">
<path id="Vector" d="M18.75 12.5313C11.1875 18.25 6.25 27.2812 6.25 37.5C6.25 42.0625 7.25 46.4062 9.03125 50.3437L18.75 44.7187V12.5313ZM34.375 35.6875V6.40625C31.0625 6.75 27.9062 7.59375 25 8.875V41.125L34.375 35.6875ZM37.5 41.0937L12.1563 55.7187C14.0625 58.3437 16.3438 60.6875 18.9688 62.5938L46.875 46.5312L37.5 41.0937ZM40.625 24.875V35.6875L65.9688 50.3125C67.2812 47.4062 68.1562 44.2812 68.5312 41L40.625 24.875ZM25.2188 66.25C29 67.8438 33.125 68.75 37.5 68.75C47.9375 68.75 57.1562 63.5937 62.8438 55.75L53.125 50.125L25.2188 66.25ZM68.5 33.7812C66.7812 19.3125 55.1875 7.84375 40.625 6.40625V17.6562L68.5 33.7812Z" fill="#F9FAFB"/>
</g>
</svg>
